<svg viewBox="0 0 512 512" style="width:120px;height:120px;margin:0 auto var(--space-xl);color:var(--text-muted);opacity:0.3;">
          <path fill="currentColor" d="M501.54 60.91a17.07 17.07 0 0 0-2.46-2.46c-46.59-37.89-169.27-49.45-236.38 0C195.59 11.46 72.92 23 26.33 60.91a17.07 17.07 0 0 0-2.46 2.46C-37.18 135.92 48.3 245.87 145.28 245.87c3.14 0 6.32-.12 9.47-.33l-4 4a24 24 0 0 0 0 33.94L242.7 375.4a8 8 0 0 1 2.34 5.66v99a24 24 0 0 0 24 24h16a24 24 0 0 0 24-24v-99a8 8 0 0 1 2.34-5.66l91.93-91.93a24 24 0 0 0 0-33.94l-4-4c3.15.21 6.33.33 9.47.33 96.97.03 182.45-109.92 121.56-182.49z"/>
        </svg>
