<svg viewBox="0 0 512 512" style="width:120px;height:120px;margin:0 auto var(--space-xl);color:var(--text-muted);opacity:0.3;">
          <path fill="currentColor" d="M481.56 200.2a95.92 95.92 0 0 0-67.56-163.8C379.45 14.17 340.29 0 297.6 0H214.4c-42.69 0-81.85 14.17-116.4 36.4A95.92 95.92 0 0 0 30.44 200.2 95.8 95.8 0 0 0 48 256a95.8 95.8 0 0 0-17.56 55.8 95.92 95.92 0 0 0 67.56 163.8C132.55 497.83 171.71 512 214.4 512h83.2c42.69 0 81.85-14.17 116.4-36.4a95.92 95.92 0 0 0 67.56-163.8A95.8 95.8 0 0 0 464 256a95.8 95.8 0 0 0 17.56-55.8zM256 352a96 96 0 1 1 96-96 96 96 0 0 1-96 96z"/>
        </svg>
